<?xml version="1.0" encoding="UTF-8" standalone="no"?>
<!-- Generator: Adobe Illustrator 14.0.0, SVG Export Plug-In  -->

<svg
   xmlns:dc="http://purl.org/dc/elements/1.1/"
   xmlns:cc="http://creativecommons.org/ns#"
   xmlns:rdf="http://www.w3.org/1999/02/22-rdf-syntax-ns#"
   xmlns:svg="http://www.w3.org/2000/svg"
   xmlns="http://www.w3.org/2000/svg"
   xmlns:sodipodi="http://sodipodi.sourceforge.net/DTD/sodipodi-0.dtd"
   xmlns:inkscape="http://www.inkscape.org/namespaces/inkscape"
   version="1.1"
   x="0px"
   y="0px"
   width="285px"
   height="285px"
   viewBox="-0.866 -0.866 285 285"
   enable-background="new -0.866 -0.866 285 285"
   xml:space="preserve"
   id="svg2"
   inkscape:version="0.91 r13725"
   sodipodi:docname="nhsbuntu-v2.svg"><metadata
     id="metadata12"><rdf:RDF><cc:Work
         rdf:about=""><dc:format>image/svg+xml</dc:format><dc:type
           rdf:resource="http://purl.org/dc/dcmitype/StillImage" /><dc:title></dc:title></cc:Work></rdf:RDF></metadata><sodipodi:namedview
     pagecolor="#ffffff"
     bordercolor="#666666"
     borderopacity="1"
     objecttolerance="10"
     gridtolerance="10"
     guidetolerance="10"
     inkscape:pageopacity="0"
     inkscape:pageshadow="2"
     inkscape:window-width="3200"
     inkscape:window-height="1671"
     id="namedview10"
     showgrid="false"
     inkscape:zoom="4.09"
     inkscape:cx="90.636526"
     inkscape:cy="142.97326"
     inkscape:window-x="0"
     inkscape:window-y="55"
     inkscape:window-maximized="1"
     inkscape:current-layer="svg2" /><defs
     id="defs4" /><path
     d="M283.465,141.734c0,78.273-63.457,141.73-141.734,141.73S0,220.008,0,141.734C0,63.455,63.453,0,141.73,0  S283.465,63.455,283.465,141.734z"
     id="path6"
     style="fill:#007ac2;fill-opacity:1" /><path
     fill="#FFFFFF"
     d="M45.356,122.812c-10.453,0-18.923,8.47-18.923,18.923c0,10.449,8.47,18.92,18.923,18.92  c10.449,0,18.92-8.471,18.92-18.92C64.276,131.281,55.806,122.812,45.356,122.812z M180.463,208.814  c-9.051,5.225-12.149,16.793-6.926,25.84c5.226,9.051,16.793,12.151,25.844,6.926c9.048-5.224,12.148-16.792,6.923-25.842  C201.08,206.691,189.511,203.59,180.463,208.814z M86.458,141.732c0-18.701,9.293-35.219,23.504-45.221L96.128,73.338  c-16.56,11.064-28.878,27.978-33.995,47.788c5.977,4.872,9.796,12.291,9.796,20.608c0,8.315-3.819,15.734-9.797,20.605  c5.116,19.812,17.435,36.726,33.995,47.789l13.835-23.175C95.751,176.953,86.458,160.436,86.458,141.732z M141.733,86.457  c28.877,0,52.564,22.141,55.047,50.373l26.968-0.394c-1.327-20.844-10.432-39.562-24.425-53.319  c-7.194,2.718-15.505,2.306-22.688-1.842c-7.192-4.152-11.705-11.156-12.941-18.757c-6.992-1.935-14.351-2.99-21.96-2.99  c-13.086,0-25.449,3.072-36.431,8.512l13.146,23.56C125.526,88.307,133.412,86.457,141.733,86.457z M141.733,197.008  c-8.322,0-16.207-1.85-23.285-5.143L105.3,215.427c10.983,5.438,23.347,8.511,36.433,8.511c7.609,0,14.968-1.055,21.961-2.99  c1.236-7.601,5.75-14.605,12.943-18.76c7.183-4.146,15.494-4.558,22.688-1.839c13.992-13.758,23.097-32.476,24.422-53.32  l-26.968-0.394C194.298,174.871,170.61,197.008,141.733,197.008z M180.46,74.649c9.05,5.227,20.619,2.126,25.842-6.921  c5.226-9.051,2.128-20.619-6.923-25.845c-9.049-5.224-20.617-2.124-25.843,6.927C168.312,57.857,171.412,69.426,180.46,74.649z"
     id="path8" /><g
     style="overflow:visible"
     id="g4214"
     transform="matrix(0.32762837,0,0,0.32762837,94.366271,120.95552)"><g
       id="g4200"
       transform="scale(1.6666667,1.6666667)"><rect
         id="rect4202"
         x="0"
         y="0"
         width="180"
         height="72"
         style="fill:#007ac2" /><polyline
         id="polyline4204"
         points="17.6,6.68,37.173,6.68,49.19,47.34,49.356,47.34,57.586,6.68,72.377,6.68,59.943,65.322,40.45,65.322,28.184,24.742,28.015,24.742,19.868,65.322,5.079,65.322"
         style="fill:#ffffff" /><polyline
         id="polyline4206"
         points="78.163,6.68,93.874,6.68,89.252,29.112,107.82,29.112,112.439,6.68,128.148,6.68,115.968,65.322,100.256,65.322,105.469,40.201,86.898,40.201,81.694,65.322,65.98,65.322"
         style="fill:#ffffff" /><path
         id="path4208"
         d="m 169.48,19.954 c -3.025,-1.428 -7.142,-2.691 -12.94,-2.691 -6.213,0 -11.252,0.928 -11.252,5.63 0,8.318 22.764,5.208 22.764,23.021 0,16.215 -15.037,20.414 -28.648,20.414 -6.05,0 -13.023,-1.428 -18.148,-3.025 l 3.702,-11.926 c 3.108,2.014 9.321,3.359 14.446,3.359 4.873,0 12.521,-0.924 12.521,-6.973 0,-9.412 -22.771,-5.883 -22.771,-22.434 0,-15.12 13.275,-19.659 26.127,-19.659 7.229,0 14.034,0.754 17.979,2.605"
         inkscape:connector-curvature="0"
         style="fill:#ffffff" /></g></g></svg>