<?xml version="1.0" encoding="UTF-8" standalone="no"?>
<!-- Created with Inkscape (http://www.inkscape.org/) -->

<svg
   xmlns:dc="http://purl.org/dc/elements/1.1/"
   xmlns:cc="http://creativecommons.org/ns#"
   xmlns:rdf="http://www.w3.org/1999/02/22-rdf-syntax-ns#"
   xmlns:svg="http://www.w3.org/2000/svg"
   xmlns="http://www.w3.org/2000/svg"
   xmlns:sodipodi="http://sodipodi.sourceforge.net/DTD/sodipodi-0.dtd"
   xmlns:inkscape="http://www.inkscape.org/namespaces/inkscape"
   width="224.77356mm"
   height="42.419292mm"
   viewBox="0 0 796.44175 150.30458"
   id="svg2"
   version="1.1"
   inkscape:version="0.91 r13725"
   sodipodi:docname="nhsbuntulogo.svg">
  <defs
     id="defs4" />
  <sodipodi:namedview
     id="base"
     pagecolor="#000000"
     bordercolor="#666666"
     borderopacity="1.0"
     inkscape:pageopacity="0"
     inkscape:pageshadow="2"
     inkscape:zoom="1.979899"
     inkscape:cx="185.02643"
     inkscape:cy="19.376264"
     inkscape:document-units="px"
     inkscape:current-layer="layer1"
     showgrid="false"
     inkscape:window-width="3200"
     inkscape:window-height="1701"
     inkscape:window-x="0"
     inkscape:window-y="50"
     inkscape:window-maximized="1"
     fit-margin-top="0"
     fit-margin-left="0"
     fit-margin-right="0"
     fit-margin-bottom="0" />
  <metadata
     id="metadata7">
    <rdf:RDF>
      <cc:Work
         rdf:about="">
        <dc:format>image/svg+xml</dc:format>
        <dc:type
           rdf:resource="http://purl.org/dc/dcmitype/StillImage" />
        <dc:title></dc:title>
      </cc:Work>
    </rdf:RDF>
  </metadata>
  <g
     inkscape:label="Layer 1"
     inkscape:groupmode="layer"
     id="layer1"
     transform="translate(50.499976,-143.32899)">
    <path
       inkscape:connector-curvature="0"
       id="text"
       d="m 691.70593,199.15563 0,53.18642 c -4e-5,13.54214 6.55995,21.09957 19.67986,21.09957 3.51236,0 6.97315,-0.15506 10.3823,-0.46519 3.40903,-0.31013 6.30162,-0.77527 8.67774,-1.39557 l 0,-72.42523 15.49595,0 0,82.03911 c -4.64886,1.65401 -10.02077,2.84284 -16.1158,3.56643 -6.09513,0.82704 -12.24184,1.2405 -18.44019,1.2405 -11.57036,0 -20.35137,-3.68085 -26.34312,-9.46987 -5.99179,-5.78899 -8.98766,-14.57584 -8.98766,-26.36062 l 0,-51.01555 15.65092,0 m -240.0644,0 0,53.18642 c -4e-5,13.54214 6.55995,21.09957 19.67987,21.09957 3.51235,0 6.97314,-0.15506 10.38229,-0.46519 3.40904,-0.31013 6.30163,-0.77527 8.67774,-1.39557 l 0,-72.42523 15.49596,0 0,82.03911 c -4.64887,1.65401 -10.02078,2.84284 -16.1158,3.56643 -6.09514,0.82704 -12.24185,1.2405 -18.44019,1.2405 -11.57036,0 -20.35138,-3.68085 -26.34313,-9.46987 -5.99178,-5.78899 -8.98766,-14.57584 -8.98766,-26.36062 l 0,-51.01555 15.65092,0 m 176.51846,-27.4427 -13.9725,2.53361 -0.0312,84.57879 c 8e-5,16.22975 8.78318,26.86874 28.10129,26.86878 4.75213,-4e-5 13.96756,-1.29049 19.44272,-2.22081 l -1.84425,-10.94771 c -0.1077,0.43061 -12.32829,1.6703 -18.8488,1.31373 -6.52051,-0.35663 -12.4038,-5.67406 -12.97223,-11.13538 l 0.0312,-51.14139 32.19613,0 0,-12.41782 -32.19613,0 0.0937,-27.4318 z m -268.19694,-14.70119 -15.66045,2.53361 0,121.64939 c 9.19425,3.20464 18.95845,4.81699 29.2891,4.81699 1.76844,0 3.48049,-0.0612 5.12638,-0.18767 l 0,-0.0312 c 30.54588,0.14717 46.35455,-24.07243 42.26585,-52.17843 -3.21344,-19.82404 -19.66676,-36.56531 -38.92115,-36.56531 -7.64458,0 -13.74064,2.06822 -18.28616,3.72222 -1.38565,0.52381 -2.63952,1.06353 -3.81352,1.62652 l 0,-45.38603 0,-5e-5 -5e-5,0 z m 21.94339,52.6115 c 17.18558,0.84712 24.07086,15.97143 24.60481,30.84124 0.72995,20.3288 -13.45913,34.66708 -32.60696,32.97304 -4.421,-0.39114 -9.08586,-0.55193 -13.94124,-1.68907 l 0,-55.96322 c 2.04516,-1.74484 4.35169,-3.13687 6.9081,-4.16012 3.61577,-1.34388 8.64102,-2.31705 15.03529,-2.00187 z m 160.69652,74.19649 -15.65092,0 0,-81.25273 c 4.75208,-1.6539 10.0207,-2.84273 15.80588,-3.56644 5.88843,-0.82692 11.93185,-1.24042 18.13028,-1.2405 23.14053,8e-5 34.71082,11.52637 34.71094,34.57892 l 0,51.48075 -15.49596,0 0,-53.65162 c -8e-5,-13.23191 -6.40506,-19.84792 -19.21498,-19.84799 -3.4092,7e-5 -6.71499,0.15507 -9.91742,0.46518 -3.20255,0.31014 -5.99182,0.72372 -8.36782,1.24052 l 0,71.79391 m -273.01026,-84.6641 0,53.18642 c -4e-5,13.54214 6.55995,21.09957 19.67987,21.09957 3.51235,0 6.97314,-0.15506 10.38229,-0.46519 3.40904,-0.31013 6.30162,-0.77527 8.67774,-1.39557 l 0,-72.42523 15.49596,0 0,82.03911 c -4.64887,1.65401 -10.02078,2.84284 -16.11581,3.56643 -6.09513,0.82704 -12.24184,1.2405 -18.44018,1.2405 -11.57037,0 -20.35138,-3.68085 -26.34313,-9.46987 -5.99179,-5.78899 -8.98766,-14.57584 -8.98766,-26.36062 l 0,-51.01555 15.65092,0"
       style="font-style:normal;font-variant:normal;font-weight:bold;font-stretch:normal;font-size:40px;line-height:125%;font-family:Xenu;text-align:start;text-anchor:start;fill:#ffffff;fill-opacity:1;stroke:none" />
    <g
       style="overflow:visible"
       id="g4210"
       transform="matrix(1.2845263,0,0,1.3156726,-60.096425,143.32899)">
      <g
         id="g4196"
         transform="scale(1.6666667,1.6666667)">
        <rect
           id="rect4198"
           x="0"
           y="0"
           width="180"
           height="72"
           style="fill:#007ac2" />
        <polyline
           id="polyline4200"
           points="17.6,6.68,37.173,6.68,49.19,47.34,49.356,47.34,57.586,6.68,72.377,6.68,59.943,65.322,40.45,65.322,28.184,24.742,28.015,24.742,19.868,65.322,5.079,65.322"
           style="fill:#ffffff" />
        <polyline
           id="polyline4202"
           points="78.163,6.68,93.874,6.68,89.252,29.112,107.82,29.112,112.439,6.68,128.148,6.68,115.968,65.322,100.256,65.322,105.469,40.201,86.898,40.201,81.694,65.322,65.98,65.322"
           style="fill:#ffffff" />
        <path
           id="path4204"
           d="m 169.48,19.954 c -3.025,-1.428 -7.142,-2.691 -12.94,-2.691 -6.213,0 -11.252,0.928 -11.252,5.63 0,8.318 22.764,5.208 22.764,23.021 0,16.215 -15.037,20.414 -28.648,20.414 -6.05,0 -13.023,-1.428 -18.148,-3.025 l 3.702,-11.926 c 3.108,2.014 9.321,3.359 14.446,3.359 4.873,0 12.521,-0.924 12.521,-6.973 0,-9.412 -22.771,-5.883 -22.771,-22.434 0,-15.12 13.275,-19.659 26.127,-19.659 7.229,0 14.034,0.754 17.979,2.605"
           inkscape:connector-curvature="0"
           style="fill:#ffffff" />
      </g>
    </g>
  </g>
</svg>
