<?xml version="1.0" encoding="UTF-8" standalone="no"?>
<!-- Created with Inkscape (http://www.inkscape.org/) -->

<svg
   xmlns:dc="http://purl.org/dc/elements/1.1/"
   xmlns:cc="http://creativecommons.org/ns#"
   xmlns:rdf="http://www.w3.org/1999/02/22-rdf-syntax-ns#"
   xmlns:svg="http://www.w3.org/2000/svg"
   xmlns="http://www.w3.org/2000/svg"
   xmlns:sodipodi="http://sodipodi.sourceforge.net/DTD/sodipodi-0.dtd"
   xmlns:inkscape="http://www.inkscape.org/namespaces/inkscape"
   width="3200"
   height="1800"
   viewBox="0 0 3200 1800"
   id="svg2"
   version="1.1"
   inkscape:version="0.91 r13725"
   sodipodi:docname="nhsbuntu-desktop-background.v1.svg"
   inkscape:export-filename="/home/marcus/code/nhsbuntu/identity/nhsbuntu-desktop-backgrounds/nhsbuntu-desktop-background.v1.png"
   inkscape:export-xdpi="90"
   inkscape:export-ydpi="90">
  <defs
     id="defs4" />
  <sodipodi:namedview
     id="base"
     pagecolor="#ffffff"
     bordercolor="#666666"
     borderopacity="1.0"
     inkscape:pageopacity="0.0"
     inkscape:pageshadow="2"
     inkscape:zoom="0.49497475"
     inkscape:cx="1890.5443"
     inkscape:cy="416.68243"
     inkscape:document-units="px"
     inkscape:current-layer="g4275"
     showgrid="false"
     units="px"
     inkscape:window-width="1920"
     inkscape:window-height="1028"
     inkscape:window-x="0"
     inkscape:window-y="161"
     inkscape:window-maximized="1" />
  <metadata
     id="metadata7">
    <rdf:RDF>
      <cc:Work
         rdf:about="">
        <dc:format>image/svg+xml</dc:format>
        <dc:type
           rdf:resource="http://purl.org/dc/dcmitype/StillImage" />
        <dc:title />
      </cc:Work>
    </rdf:RDF>
  </metadata>
  <g
     inkscape:label="Layer 1"
     inkscape:groupmode="layer"
     id="layer1"
     transform="translate(0,747.63806)">
    <g
       id="g4260"
       transform="translate(-2.1428572,5.0000001)">
      <g
         id="g4275"
         transform="translate(-2.1428572,-5.7142857)">
        <rect
           id="rect4202"
           x="3.3203888"
           y="-746.5863"
           width="3200.6521"
           height="1800.3318"
           style="overflow:visible;fill:#007ac2" />
        <path
           inkscape:connector-curvature="0"
           style="fill:#ffffff"
           d="m 2113.3415,83.334062 c -8.5233,0 -15.4296,6.906315 -15.4296,15.429523 0,8.519955 6.9063,15.427085 15.4296,15.427085 8.5201,0 15.4272,-6.90713 15.4272,-15.427085 0,-8.524025 -6.9063,-15.429523 -15.4272,-15.429523 z m 110.1643,70.124748 c -7.3801,4.26038 -9.9062,13.69276 -5.6474,21.06954 4.2612,7.38005 13.6928,9.90776 21.0728,5.64736 7.3776,-4.25956 9.9053,-13.69195 5.6449,-21.07118 -4.2595,-7.37678 -13.6927,-9.9053 -21.0703,-5.64572 z m -76.6503,-54.697659 c 0,-15.24853 7.5774,-28.717046 19.1648,-36.872536 l -11.2801,-18.894917 c -13.5027,9.021421 -23.5467,22.812848 -27.719,38.965622 4.8736,3.972555 7.9876,10.021901 7.9876,16.803449 0,6.779931 -3.114,12.829271 -7.9884,16.801011 4.1715,16.15441 14.2163,29.94584 27.719,38.96645 l 11.2809,-18.89656 c -11.5874,-8.15384 -19.1648,-21.62155 -19.1648,-36.872519 z m 45.0704,-45.070415 c 23.5459,0 42.8599,18.05344 44.8846,41.07339 l 21.9893,-0.321261 c -1.0821,-16.995892 -8.5062,-32.258259 -19.9158,-43.475526 -5.8659,2.216226 -12.6426,1.88028 -18.4995,-1.50192 -5.8643,-3.38549 -9.5442,-9.096438 -10.5519,-15.294187 -5.7011,-1.577771 -11.7016,-2.438007 -17.9059,-2.438007 -10.6701,0 -20.7507,2.504866 -29.7053,6.940569 l 10.719,19.210462 c 5.7706,-2.685059 12.2008,-4.19352 18.9855,-4.19352 z m 0,90.141634 c -6.7857,0 -13.2149,-1.50846 -18.9863,-4.19352 l -10.7206,19.2121 c 8.9554,4.43407 19.0368,6.93975 29.7069,6.93975 6.2043,0 12.2046,-0.86024 17.9067,-2.43801 1.0077,-6.19775 4.6884,-11.9087 10.5535,-15.29662 5.8569,-3.38059 12.6336,-3.71653 18.4995,-1.49949 11.4088,-11.21807 18.8329,-26.48045 19.9134,-43.47634 l -21.9893,-0.32126 c -2.0231,23.02321 -21.3379,41.07339 -44.8838,41.07339 z m 31.5774,-99.769706 c 7.3793,4.262029 16.8125,1.733509 21.0712,-5.643272 4.2612,-7.380048 1.7351,-16.812433 -5.6449,-21.073628 -7.3784,-4.259579 -16.8108,-1.731876 -21.072,5.648172 -4.2596,7.376782 -1.7319,16.809983 5.6457,21.068728 z"
           id="path8" />
        <flowRoot
           xml:space="preserve"
           id="flowRoot3438"
           style="font-style:normal;font-weight:normal;font-size:40px;line-height:125%;font-family:sans-serif;letter-spacing:0px;word-spacing:0px;fill:#000000;fill-opacity:1;stroke:none;stroke-width:1px;stroke-linecap:butt;stroke-linejoin:miter;stroke-opacity:1"><flowRegion
             id="flowRegion3440"><rect
               id="rect3442"
               width="237.85715"
               height="65.714287"
               x="1159.2858"
               y="970" /></flowRegion><flowPara
             id="flowPara3444" /></flowRoot>        <g
           id="g4252"
           transform="matrix(5.5592522,0,0,5.5592522,-4147.624,-1036.472)">
          <g
             transform="translate(4.8214286,7.5)"
             id="g3433">
            <polyline
               transform="matrix(0.54604729,0,0,0.54604729,924.16638,196.99049)"
               id="polyline4204"
               points="17.6,6.68,37.173,6.68,49.19,47.34,49.356,47.34,57.586,6.68,72.377,6.68,59.943,65.322,40.45,65.322,28.184,24.742,28.015,24.742,19.868,65.322,5.079,65.322"
               style="overflow:visible;fill:#ffffff" />
            <polyline
               transform="matrix(0.54604729,0,0,0.54604729,924.16638,196.99049)"
               id="polyline4206"
               points="78.163,6.68,93.874,6.68,89.252,29.112,107.82,29.112,112.439,6.68,128.148,6.68,115.968,65.322,100.256,65.322,105.469,40.201,86.898,40.201,81.694,65.322,65.98,65.322"
               style="overflow:visible;fill:#ffffff" />
            <path
               id="path4208"
               d="m 1016.7105,207.88632 c -1.6518,-0.77976 -3.8999,-1.46941 -7.0659,-1.46941 -3.3926,0 -6.1441,0.50673 -6.1441,3.07424 0,4.54202 12.4302,2.84382 12.4302,12.57056 0,8.85415 -8.2109,11.14701 -15.6431,11.14701 -3.30363,0 -7.11122,-0.77976 -9.90971,-1.6518 l 2.02147,-6.51216 c 1.69711,1.09974 5.0897,1.83418 7.88824,1.83418 2.6608,0 6.837,-0.50455 6.837,-3.80759 0,-5.1394 -12.43403,-3.2124 -12.43403,-12.25003 0,-8.25623 7.24873,-10.73474 14.26653,-10.73474 3.9474,0 7.6633,0.41172 9.8174,1.42245"
               inkscape:connector-curvature="0"
               style="overflow:visible;fill:#ffffff" />
          </g>
          <text
             sodipodi:linespacing="125%"
             id="text3446"
             y="239.66696"
             x="1019.5208"
             style="font-style:italic;font-variant:normal;font-weight:500;font-stretch:normal;font-size:40px;line-height:125%;font-family:Ubuntu;-inkscape-font-specification:'Ubuntu, Medium Italic';text-align:start;letter-spacing:0px;word-spacing:0px;writing-mode:lr-tb;text-anchor:start;fill:#ffffff;fill-opacity:1;stroke:none;stroke-width:1px;stroke-linecap:butt;stroke-linejoin:miter;stroke-opacity:1"
             xml:space="preserve"><tspan
               y="239.66696"
               x="1019.5208"
               id="tspan3448"
               sodipodi:role="line">buntu</tspan></text>
        </g>
        <text
           xml:space="preserve"
           style="font-style:normal;font-weight:normal;font-size:40px;line-height:125%;font-family:sans-serif;letter-spacing:0px;word-spacing:0px;fill:#ffffff;fill-opacity:1;stroke:none;stroke-width:1px;stroke-linecap:butt;stroke-linejoin:miter;stroke-opacity:1"
           x="1693.3011"
           y="354.0304"
           id="text4290"
           sodipodi:linespacing="125%"><tspan
             sodipodi:role="line"
             x="1693.3011"
             y="354.0304"
             style="font-style:normal;font-variant:normal;font-weight:normal;font-stretch:normal;font-size:40px;line-height:125%;font-family:Ubuntu;-inkscape-font-specification:'Ubuntu, Normal';text-align:start;writing-mode:lr-tb;text-anchor:start"
             id="tspan4154">simple tech for the NHS</tspan></text>
        <text
           xml:space="preserve"
           style="font-style:normal;font-weight:normal;font-size:40px;line-height:125%;font-family:sans-serif;letter-spacing:0px;word-spacing:0px;fill:#ffffff;fill-opacity:1;stroke:none;stroke-width:1px;stroke-linecap:butt;stroke-linejoin:miter;stroke-opacity:1;"
           x="2214.4995"
           y="915.6955"
           id="text4298"
           sodipodi:linespacing="125%"><tspan
             sodipodi:role="line"
             id="tspan4300"
             x="2214.4995"
             y="915.6955"
             style="-inkscape-font-specification:'Ubuntu, Normal';font-family:Ubuntu;font-weight:normal;font-style:normal;font-stretch:normal;font-variant:normal;font-size:40px;text-anchor:start;text-align:start;writing-mode:lr;line-height:125%;fill:#ffffff;fill-opacity:1;">created by <tspan
   style="-inkscape-font-specification:'Ubuntu, Medium';font-family:Ubuntu;font-weight:bold;font-style:normal;font-stretch:normal;font-variant:normal;font-size:40px;text-anchor:start;text-align:start;writing-mode:lr;line-height:125%"
   id="tspan4302">openhealthhub</tspan> and <tspan
   style="font-weight:bold"
   id="tspan4304">Neova Health</tspan></tspan></text>
      </g>
    </g>
  </g>
</svg>
