<svg xmlns:rdf="http://www.w3.org/1999/02/22-rdf-syntax-ns#" xmlns="http://www.w3.org/2000/svg" xml:space="preserve" overflow="visible" height="120" width="300" version="1.1" enable-background="new 0 0 180 72" xmlns:cc="http://creativecommons.org/ns#" xmlns:dc="http://purl.org/dc/elements/1.1/" viewBox="0 0 300 120"><metadata><rdf:RDF><cc:Work rdf:about=""><dc:format>image/svg+xml</dc:format><dc:type rdf:resource="http://purl.org/dc/dcmitype/StillImage"/><dc:title/></cc:Work></rdf:RDF></metadata>
<g transform="scale(1.6666667,1.6666667)"><rect height="72" width="180" y="0" x="0" fill="#007ac2"/><polyline points="17.6,6.68,37.173,6.68,49.19,47.34,49.356,47.34,57.586,6.68,72.377,6.68,59.943,65.322,40.45,65.322,28.184,24.742,28.015,24.742,19.868,65.322,5.079,65.322" fill="#FFF"/><polyline points="78.163,6.68,93.874,6.68,89.252,29.112,107.82,29.112,112.439,6.68,128.148,6.68,115.968,65.322,100.256,65.322,105.469,40.201,86.898,40.201,81.694,65.322,65.98,65.322" fill="#FFF"/><path fill="#FFF" d="m169.48,19.954c-3.025-1.428-7.142-2.691-12.94-2.691-6.213,0-11.252,0.928-11.252,5.63,0,8.318,22.764,5.208,22.764,23.021,0,16.215-15.037,20.414-28.648,20.414-6.05,0-13.023-1.428-18.148-3.025l3.702-11.926c3.108,2.014,9.321,3.359,14.446,3.359,4.873,0,12.521-0.924,12.521-6.973,0-9.412-22.771-5.883-22.771-22.434,0-15.12,13.275-19.659,26.127-19.659,7.229,0,14.034,0.754,17.979,2.605"/></g>
</svg>
